<mxfile host="app.diagrams.net" modified="2021-09-14T06:21:09.425Z" agent="5.0 (Windows NT 6.1; Win64; x64) AppleWebKit/537.36 (KHTML, like Gecko) Chrome/92.0.4515.159 Safari/537.36" etag="tRy3vQYCX3vP_wpHcLWg" version="14.4.3" type="github">
  <diagram id="DQacaI30Z39Zxa0IWeKS" name="Page-1">
    <mxGraphModel dx="1422" dy="683" grid="1" gridSize="10" guides="1" tooltips="1" connect="1" arrows="1" fold="1" page="1" pageScale="1" pageWidth="1169" pageHeight="827" math="0" shadow="0">
      <root>
        <mxCell id="0" />
        <mxCell id="1" parent="0" />
        <mxCell id="uFpdu6AdOi07NypV2K6O-3" value="" style="edgeStyle=orthogonalEdgeStyle;rounded=0;orthogonalLoop=1;jettySize=auto;html=1;" edge="1" parent="1" source="uFpdu6AdOi07NypV2K6O-1" target="uFpdu6AdOi07NypV2K6O-2">
          <mxGeometry relative="1" as="geometry" />
        </mxCell>
        <mxCell id="uFpdu6AdOi07NypV2K6O-1" value="1. Определить папку с архивами (D:/1c8BackUp/)" style="rounded=0;whiteSpace=wrap;html=1;" vertex="1" parent="1">
          <mxGeometry x="40" y="50" width="120" height="60" as="geometry" />
        </mxCell>
        <mxCell id="uFpdu6AdOi07NypV2K6O-5" value="" style="edgeStyle=orthogonalEdgeStyle;rounded=0;orthogonalLoop=1;jettySize=auto;html=1;" edge="1" parent="1" source="uFpdu6AdOi07NypV2K6O-2" target="uFpdu6AdOi07NypV2K6O-4">
          <mxGeometry relative="1" as="geometry" />
        </mxCell>
        <mxCell id="uFpdu6AdOi07NypV2K6O-2" value="Очистка файлов .trn позже даты последнего .bak" style="whiteSpace=wrap;html=1;rounded=0;" vertex="1" parent="1">
          <mxGeometry x="220" y="50" width="120" height="60" as="geometry" />
        </mxCell>
        <mxCell id="uFpdu6AdOi07NypV2K6O-7" value="" style="edgeStyle=orthogonalEdgeStyle;rounded=0;orthogonalLoop=1;jettySize=auto;html=1;" edge="1" parent="1" source="uFpdu6AdOi07NypV2K6O-4" target="uFpdu6AdOi07NypV2K6O-6">
          <mxGeometry relative="1" as="geometry" />
        </mxCell>
        <mxCell id="uFpdu6AdOi07NypV2K6O-4" value="Архивация winrar всех .bak файлов в отдельный архив" style="whiteSpace=wrap;html=1;rounded=0;" vertex="1" parent="1">
          <mxGeometry x="420" y="50" width="120" height="60" as="geometry" />
        </mxCell>
        <mxCell id="uFpdu6AdOi07NypV2K6O-6" value="Удаление .rar файлов с датой позже 10 дней от текущей. Остаются первый файл для каждого месяца" style="whiteSpace=wrap;html=1;rounded=0;" vertex="1" parent="1">
          <mxGeometry x="640" y="30" width="120" height="100" as="geometry" />
        </mxCell>
      </root>
    </mxGraphModel>
  </diagram>
</mxfile>
